<svg width="110" height="129" viewBox="0 0 110 129" fill="none" xmlns="http://www.w3.org/2000/svg">
<path d="M20.851 0C9.10834 0 -0.107615 10.0689 0.929046 21.7656L8.01842 101.756C8.72295 109.705 14.0858 116.475 21.6629 118.98L48.7226 127.925C52.799 129.272 57.201 129.272 61.2774 127.925L88.3371 118.98C95.9142 116.475 101.277 109.705 101.982 101.756L109.071 21.7656C110.108 10.0688 100.892 0 89.149 0H20.851ZM90.3208 23.2143L88.9208 36.9397L55.2917 51.2455L55.2042 51.2746H87.725L83.9917 93.8147L55.35 102.143L26.5333 93.6696L24.6667 72.2254H38.9292L39.8625 83.3393L55.2042 87.1987L71.1583 82.7299L72.2375 64.8549L23.7333 64.7098V64.6808L23.675 64.7098L22.625 51.2746L55.3208 37.7232L57.2167 36.9397H21.3708L19.6792 23.2143H90.3208Z" fill="#26979F"/>
</svg>
