<svg width="33" height="33" viewBox="0 0 33 33" fill="none" xmlns="http://www.w3.org/2000/svg">
<path d="M0.0765648 22.0597C-0.433547 20.5296 5.17784 20.5295 7.21827 23.5904C10.2791 27.1611 12.3193 25.6307 13.8497 24.6105V28.1815C11.6881 28.9643 10.7891 28.6913 9.76888 28.6913C8.74864 28.6913 6.70821 27.6712 5.17779 25.6309C3.13736 22.57 2.11705 23.0802 0.0765648 22.0597Z" fill="#AFFAFF"/>
<path d="M32.2144 12.3674C32.2144 19.1973 26.0479 21.0394 18.4411 21.0394C10.8344 21.0394 4.66785 19.1973 4.66785 12.3674C4.66785 5.53744 10.8344 3.69531 18.4411 3.69531C26.0479 3.69531 32.2144 5.53744 32.2144 12.3674Z" fill="#AFFAFF"/>
<path d="M13.85 23.0193C13.85 21.3624 15.1931 20.0193 16.85 20.0193H20.0322C21.689 20.0193 23.0322 21.3624 23.0322 23.0193V32.2622H13.85V23.0193Z" fill="#AFFAFF"/>
<path d="M7.45469 1.94155C10.1708 2.10878 11.1216 3.79479 11.7973 4.98227L6.99265 7.22271C6.15284 5.16029 6.25401 2.98373 7.45469 1.94155Z" fill="#AFFAFF"/>
<path d="M29.4269 1.94151C30.6275 2.98369 30.7287 5.16025 29.8889 7.22267L25.0843 4.98223C25.7599 3.79476 26.7107 2.10874 29.4269 1.94151Z" fill="#AFFAFF"/>
</svg>
