<svg width="33" height="33" viewBox="0 0 33 33" fill="none" xmlns="http://www.w3.org/2000/svg">
<path d="M0.0765648 22.0597C-0.433547 20.5296 5.17784 20.5295 7.21827 23.5904C10.2791 27.1611 12.3193 25.6307 13.8497 24.6105V28.1815C11.6881 28.9643 10.7891 28.6913 9.76888 28.6913C8.74864 28.6913 6.70821 27.6712 5.17779 25.6309C3.13736 22.57 2.11705 23.0802 0.0765648 22.0597Z" fill="#26979F"/>
<path d="M32.2145 12.3674C32.2145 19.1973 26.048 21.0394 18.4412 21.0394C10.8345 21.0394 4.66797 19.1973 4.66797 12.3674C4.66797 5.53744 10.8345 3.69531 18.4412 3.69531C26.048 3.69531 32.2145 5.53744 32.2145 12.3674Z" fill="#26979F"/>
<path d="M13.8501 23.0193C13.8501 21.3624 15.1932 20.0193 16.8501 20.0193H20.0323C21.6891 20.0193 23.0323 21.3624 23.0323 23.0193V32.2622H13.8501V23.0193Z" fill="#26979F"/>
<path d="M7.45457 1.94155C10.1707 2.10878 11.1215 3.79479 11.7972 4.98227L6.99252 7.22271C6.15272 5.16029 6.25389 2.98373 7.45457 1.94155Z" fill="#26979F"/>
<path d="M29.4267 1.94151C30.6274 2.98369 30.7286 5.16025 29.8888 7.22267L25.0841 4.98223C25.7598 3.79476 26.7106 2.10874 29.4267 1.94151Z" fill="#26979F"/>
</svg>
