<svg width="110" height="129" viewBox="0 0 110 129" fill="none" xmlns="http://www.w3.org/2000/svg">
<path d="M20.851 0C9.10834 0 -0.107615 10.0689 0.929046 21.7656L8.01962 101.769C8.72354 109.712 14.0779 116.477 21.646 118.987L48.5787 127.919C52.6539 129.27 57.0558 129.274 61.1336 127.931L88.3203 118.972C95.9063 116.472 101.278 109.698 101.983 101.742L109.071 21.7656C110.108 10.0688 100.892 0 89.149 0H20.851ZM88.8917 37.1138H35.2833L36.4792 51.4487H87.6958L83.7292 94.5112L55.175 102.346V102.433H54.8542L26.0667 94.5112L24.3167 72.5156H38.2292L39.25 83.5714L54.8542 87.779L70.5167 83.5714L72.2667 65.5223H23.5875L19.8542 23.2723H90.175L88.8917 37.1138Z" fill="#26979F"/>
</svg>
