<svg width="112" height="130" viewBox="0 0 112 130" fill="none" xmlns="http://www.w3.org/2000/svg">
<path fill-rule="evenodd" clip-rule="evenodd" d="M0.0837955 21.8111C-0.98117 10.0986 8.24087 0 20.0016 0H91.9984C103.759 0 112.981 10.0986 111.916 21.811L104.572 102.578C103.846 110.563 98.4208 117.343 90.7885 119.803L62.1339 129.036C58.1456 130.321 53.8544 130.321 49.8661 129.036L21.2115 119.803C13.5793 117.343 8.1537 110.563 7.42758 102.578L0.0837955 21.8111ZM92.6395 30.706V19.0085L61.1265 23.2489L61.4884 66.8222L81.331 61.5583V82.3214L61.3376 87.7315L61.4884 102.792L92.6395 94.3991V47.6675L72.8874 52.054V34.654L92.6395 30.706ZM47.7072 23.2488L33.6846 21.3479V83.7835L15.1387 76.4726V90.6558L47.7072 102.353V23.2488Z" fill="#26979F"/>
</svg>
