<svg width="112" height="130" viewBox="0 0 112 130" fill="none" xmlns="http://www.w3.org/2000/svg">
<path d="M15 20.5H96C99.0376 20.5 101.5 22.9624 101.5 26V71C101.5 74.0376 99.0376 76.5 96 76.5H15C11.9624 76.5 9.5 74.0376 9.5 71V26C9.5 22.9624 11.9624 20.5 15 20.5Z" fill="white" stroke="black" stroke-width="3"/>
<path d="M9.5 64.5H101.5V71C101.5 74.0376 99.0376 76.5 96 76.5H15C11.9624 76.5 9.5 74.0376 9.5 71V64.5Z" fill="white" stroke="black" stroke-width="3"/>
<rect x="51.5" y="76.5" width="8" height="12" fill="white" stroke="black" stroke-width="3"/>
<path d="M37.5 88.5H73.5C77.4741 88.5 80.7263 91.591 80.9836 95.5H30.0164C30.2737 91.591 33.5259 88.5 37.5 88.5Z" fill="white" stroke="black" stroke-width="3"/>
<circle cx="55.5" cy="70.5" r="1.5" fill="black"/>
<rect x="70.5" y="69.5" width="22" height="40" rx="2.5" fill="white" stroke="black" stroke-width="3"/>
<circle cx="81.5" cy="104.5" r="1.5" fill="black"/>
</svg>
